# Blender 3.3.1
# www.blender.org
o BottleSmall
v -0.064657 0.009354 0.000000
v -0.064372 0.179452 0.000000
v -0.055733 0.179452 0.032135
v -0.055979 0.009355 0.032277
v -0.032135 0.179452 0.055733
v -0.032277 0.009355 0.055979
v -0.000000 0.179452 0.064372
v -0.000000 0.009354 0.064657
v -0.031732 0.181885 -0.055022
v -0.013445 0.211254 -0.023339
v 0.000000 0.211265 -0.026881
v 0.000000 0.181886 -0.063567
v -0.055022 0.181885 -0.031732
v -0.023340 0.211254 -0.013445
v -0.026881 0.211265 0.000000
v -0.063567 0.181886 0.000000
v -0.012424 0.243536 -0.021607
v -0.012424 0.217848 -0.021605
v 0.000000 0.217860 -0.024941
v 0.000000 0.243527 -0.024945
v -0.021607 0.243536 -0.012424
v -0.021605 0.217848 -0.012424
v -0.024946 0.243527 0.000000
v -0.024941 0.217860 0.000000
v -0.000000 0.009354 -0.064657
v -0.032277 0.009355 -0.055979
v -0.029639 0.004529 -0.051367
v 0.000000 0.004528 -0.059379
v -0.055979 0.009355 -0.032277
v -0.051367 0.004529 -0.029639
v -0.059379 0.004528 0.000000
v -0.055022 0.181885 0.031732
v -0.031732 0.181885 0.055022
v -0.000000 0.181886 0.063567
v -0.021835 0.249200 0.012570
v -0.025152 0.249189 0.000000
v -0.021607 0.243536 0.012424
v -0.012570 0.249200 0.021835
v -0.012424 0.243536 0.021607
v 0.000000 0.249189 0.025152
v 0.000000 0.243527 0.024946
v -0.000000 0.249189 0.000000
v 0.000000 0.005000 0.000000
v 0.000000 0.179452 -0.064372
v -0.032135 0.179452 -0.055733
v -0.055733 0.179452 -0.032135
v -0.023340 0.211254 0.013445
v -0.013445 0.211254 0.023340
v -0.000000 0.211265 0.026881
v -0.021605 0.217848 0.012424
v -0.012424 0.217848 0.021605
v 0.000000 0.217860 0.024941
v -0.051367 0.004529 0.029639
v -0.029639 0.004529 0.051367
v 0.000000 0.004528 0.059379
v 0.000000 0.249189 -0.025152
v -0.012570 0.249200 -0.021835
v -0.021835 0.249200 -0.012570
v 0.055733 0.179452 0.032135
v 0.064372 0.179452 0.000000
v 0.064657 0.009354 0.000000
v 0.055979 0.009355 0.032277
v 0.032135 0.179452 0.055733
v 0.032277 0.009355 0.055979
v 0.031732 0.181885 -0.055022
v 0.013445 0.211254 -0.023339
v 0.055022 0.181885 -0.031732
v 0.023340 0.211254 -0.013445
v 0.026881 0.211265 0.000000
v 0.063567 0.181886 0.000000
v 0.012424 0.217848 -0.021605
v 0.012424 0.243536 -0.021607
v 0.021605 0.217848 -0.012424
v 0.021607 0.243536 -0.012424
v 0.024941 0.217860 0.000000
v 0.024946 0.243527 0.000000
v 0.029639 0.004529 -0.051367
v 0.032277 0.009355 -0.055979
v 0.051367 0.004529 -0.029639
v 0.055979 0.009355 -0.032277
v 0.059379 0.004528 0.000000
v 0.055022 0.181885 0.031732
v 0.031732 0.181885 0.055022
v 0.025152 0.249189 0.000000
v 0.021835 0.249200 0.012570
v 0.021607 0.243536 0.012424
v 0.012570 0.249200 0.021835
v 0.012424 0.243536 0.021607
v 0.029639 0.004529 0.051367
v 0.051367 0.004529 0.029639
v 0.032135 0.179452 -0.055733
v 0.055733 0.179452 -0.032135
v 0.023340 0.211254 0.013445
v 0.013445 0.211254 0.023340
v 0.021605 0.217848 0.012424
v 0.012424 0.217848 0.021605
v 0.012570 0.249200 -0.021835
v 0.021835 0.249200 -0.012570
v -0.000000 0.249200 0.000000
vn -1.0000 0.0017 -0.0000
vn -0.8658 0.0017 0.5004
vn -0.8551 0.1574 0.4939
vn -0.9876 0.1572 -0.0000
vn -0.5004 0.0017 0.8658
vn -0.4939 0.1574 0.8551
vn -0.0000 0.0017 1.0000
vn -0.0000 0.1572 0.9876
vn -0.4177 0.5509 -0.7225
vn -0.4056 0.5841 -0.7031
vn -0.0000 0.5821 -0.8131
vn -0.0000 0.5508 -0.8347
vn -0.7225 0.5509 -0.4177
vn -0.7031 0.5841 -0.4056
vn -0.8131 0.5821 -0.0000
vn -0.8347 0.5508 -0.0000
vn -0.4995 -0.0226 -0.8660
vn -0.0000 -0.0210 -0.9998
vn -0.0000 0.1482 -0.9890
vn -0.4939 0.1500 -0.8565
vn -0.8660 -0.0226 -0.4995
vn -0.8565 0.1500 -0.4939
vn -0.9998 -0.0210 -0.0000
vn -0.9890 0.1482 -0.0000
vn -0.0000 -0.7394 -0.6732
vn -0.3372 -0.7396 -0.5825
vn -0.3365 -0.7396 -0.5829
vn -0.5825 -0.7396 -0.3372
vn -0.5829 -0.7396 -0.3365
vn -0.6732 -0.7394 -0.0000
vn -0.7225 0.5509 0.4177
vn -0.4177 0.5509 0.7225
vn -0.0000 0.5508 0.8347
vn -0.8653 -0.0450 0.4992
vn -0.9991 -0.0417 -0.0000
vn -0.8660 -0.0226 0.4995
vn -0.4992 -0.0450 0.8653
vn -0.4995 -0.0226 0.8660
vn -0.0000 -0.0417 0.9991
vn -0.0000 -0.0210 0.9998
vn -0.0000 1.0000 -0.0000
vn 0.0002 1.0000 -0.0006
vn 0.0006 1.0000 -0.0002
vn -0.0000 -1.0000 -0.0000
vn 0.0080 -1.0000 -0.0000
vn 0.0069 -1.0000 0.0040
vn 0.0040 -1.0000 0.0069
vn -0.0000 -1.0000 0.0080
vn -0.0000 0.0017 -1.0000
vn -0.5004 0.0017 -0.8658
vn -0.4939 0.1574 -0.8551
vn -0.0000 0.1572 -0.9876
vn -0.8658 0.0017 -0.5004
vn -0.8551 0.1574 -0.4939
vn -0.7031 0.5841 0.4056
vn -0.4056 0.5841 0.7031
vn -0.0000 0.5821 0.8131
vn -0.8565 0.1500 0.4939
vn -0.4939 0.1500 0.8565
vn -0.0000 0.1482 0.9890
vn -0.5825 -0.7396 0.3372
vn -0.5829 -0.7396 0.3365
vn -0.3372 -0.7396 0.5825
vn -0.3365 -0.7396 0.5829
vn -0.0000 -0.7394 0.6732
vn -0.0000 -0.0417 -0.9991
vn -0.4992 -0.0450 -0.8653
vn -0.8653 -0.0450 -0.4992
vn 0.0006 1.0000 0.0002
vn 0.0002 1.0000 0.0006
vn 0.8551 0.1574 0.4939
vn 0.8658 0.0017 0.5004
vn 1.0000 0.0017 -0.0000
vn 0.9876 0.1572 -0.0000
vn 0.4939 0.1574 0.8551
vn 0.5004 0.0017 0.8658
vn 0.4177 0.5509 -0.7225
vn 0.4056 0.5841 -0.7031
vn 0.7225 0.5509 -0.4177
vn 0.7031 0.5841 -0.4056
vn 0.8131 0.5821 -0.0000
vn 0.8347 0.5508 -0.0000
vn 0.4995 -0.0226 -0.8660
vn 0.4939 0.1500 -0.8565
vn 0.8660 -0.0226 -0.4995
vn 0.8565 0.1500 -0.4939
vn 0.9998 -0.0210 -0.0000
vn 0.9890 0.1482 -0.0000
vn 0.3372 -0.7396 -0.5825
vn 0.3365 -0.7396 -0.5829
vn 0.5825 -0.7396 -0.3372
vn 0.5829 -0.7396 -0.3365
vn 0.6732 -0.7394 -0.0000
vn 0.7225 0.5509 0.4177
vn 0.4177 0.5509 0.7225
vn 0.9991 -0.0417 -0.0000
vn 0.8653 -0.0450 0.4992
vn 0.8660 -0.0226 0.4995
vn 0.4992 -0.0450 0.8653
vn 0.4995 -0.0226 0.8660
vn -0.0002 1.0000 -0.0006
vn -0.0006 1.0000 -0.0002
vn -0.0040 -1.0000 -0.0069
vn -0.0000 -1.0000 -0.0080
vn -0.0069 -1.0000 -0.0040
vn -0.0080 -1.0000 -0.0000
vn 0.4939 0.1574 -0.8551
vn 0.5004 0.0017 -0.8658
vn 0.8551 0.1574 -0.4939
vn 0.8658 0.0017 -0.5004
vn 0.7031 0.5841 0.4056
vn 0.4056 0.5841 0.7031
vn 0.8565 0.1500 0.4939
vn 0.4939 0.1500 0.8565
vn 0.5829 -0.7396 0.3365
vn 0.5825 -0.7396 0.3372
vn 0.3365 -0.7396 0.5829
vn 0.3372 -0.7396 0.5825
vn 0.4992 -0.0450 -0.8653
vn 0.8653 -0.0450 -0.4992
vn -0.0006 1.0000 0.0002
vn -0.0002 1.0000 0.0006
vn 0.0040 -1.0000 -0.0069
vn 0.0069 -1.0000 -0.0040
vn -0.0069 -1.0000 0.0040
vn -0.0040 -1.0000 0.0069
vt 0.501400 0.018000
vt 0.501400 0.979000
vt 0.501400 0.534000
vt 0.288500 0.534000
vt 0.288500 0.018000
vt 0.288500 0.953800
vt 0.083600 0.534000
vt 0.083600 0.018000
vt 0.083600 0.863700
vt 0.027200 0.534000
vt 1.027200 0.534000
vt 0.027200 0.018000
vt 0.027200 0.770200
vt 1.027200 0.018000
vt 1.027200 0.770200
vt 0.909500 0.547100
vt 0.688500 0.635000
vt 0.713700 0.635000
vt 1.713700 0.635000
vt 0.964700 0.547100
vt 1.964700 0.547100
vt 0.709400 0.547100
vt 0.596700 0.635000
vt 0.501400 0.635000
vt 0.501400 0.547100
vt 0.681500 0.725000
vt 0.681500 0.648100
vt 0.705800 0.648100
vt 1.705800 0.648100
vt 0.705800 0.725000
vt 1.705800 0.725000
vt 0.593200 0.725000
vt 0.593200 0.648100
vt 0.501400 0.725000
vt 0.501400 0.648100
vt 0.975600 0.770200
vt 0.975600 0.018000
vt 1.975600 0.770200
vt 1.975600 0.018000
vt 0.919200 0.863700
vt 0.919200 0.018000
vt 0.872100 0.853200
vt 0.922200 0.770200
vt 1.922200 0.770200
vt 0.714300 0.953800
vt 0.714300 0.018000
vt 0.690300 0.933100
vt 0.501400 0.955500
vt 0.293400 0.547100
vt 0.093300 0.547100
vt 0.038100 0.547100
vt 1.038100 0.547100
vt 0.398600 0.739900
vt 0.501400 0.739900
vt 0.409600 0.725000
vt 0.299700 0.739900
vt 0.321300 0.725000
vt 0.272500 0.739900
vt 1.272500 0.739900
vt 0.297000 0.725000
vt 1.297000 0.725000
vt 0.501400 0.750200
vt 0.406900 0.750200
vt 0.316000 0.750200
vt 0.711900 0.750200
vt 0.686800 0.750200
vt 0.595900 0.750200
vt 1.406900 0.750200
vt 1.316000 0.750200
vt 1.290900 0.750200
vt 1.686800 0.750200
vt 1.595900 0.750200
vt 1.501400 0.750200
vt 0.501400 0.770200
vt 1.501400 0.770200
vt 0.975600 0.534000
vt 1.975600 0.534000
vt 0.919200 0.534000
vt 0.714300 0.534000
vt 0.406100 0.635000
vt 0.314300 0.635000
vt 0.289100 0.635000
vt 1.289100 0.635000
vt 0.409600 0.648100
vt 0.321300 0.648100
vt 0.297000 0.648100
vt 1.297000 0.648100
vt 0.312500 0.933100
vt 0.130700 0.853200
vt 1.080600 0.770200
vt 0.080600 0.770200
vt 0.730300 0.739900
vt 1.730300 0.739900
vt 0.703100 0.739900
vt 0.604200 0.739900
vt 1.288500 0.534000
vt 1.501400 0.534000
vt 1.501400 0.018000
vt 1.501400 0.979000
vt 1.288500 0.018000
vt 1.288500 0.953800
vt 1.083600 0.534000
vt 1.083600 0.018000
vt 1.083600 0.863700
vt 1.909500 0.547100
vt 1.688500 0.635000
vt 1.709400 0.547100
vt 1.596700 0.635000
vt 1.501400 0.635000
vt 1.501400 0.547100
vt 1.681500 0.648100
vt 1.681500 0.725000
vt 1.593200 0.648100
vt 1.593200 0.725000
vt 1.501400 0.648100
vt 1.501400 0.725000
vt 1.872100 0.853200
vt 1.919200 0.863700
vt 1.919200 0.018000
vt 1.690300 0.933100
vt 1.714300 0.953800
vt 1.714300 0.018000
vt 1.501400 0.955500
vt 1.293400 0.547100
vt 1.093300 0.547100
vt 1.501400 0.739900
vt 1.398600 0.739900
vt 1.409600 0.725000
vt 1.299700 0.739900
vt 1.321300 0.725000
vt 1.130700 0.853200
vt 1.312500 0.933100
vt 1.919200 0.534000
vt 1.714300 0.534000
vt 1.406100 0.635000
vt 1.314300 0.635000
vt 1.409600 0.648100
vt 1.321300 0.648100
vt 1.703100 0.739900
vt 1.604200 0.739900
s 1
f 1/1/1 4/5/2 3/4/3 2/3/4
f 4/5/2 6/8/5 5/7/6 3/4/3
f 6/8/5 8/12/7 7/10/8 5/7/6
f 9/16/9 10/17/10 11/18/11 12/20/12
f 13/22/13 14/23/14 10/17/10 9/16/9
f 15/24/15 14/23/14 13/22/13 16/25/16
f 17/26/17 20/30/18 19/28/19 18/27/20
f 21/32/21 17/26/17 18/27/20 22/33/22
f 23/34/23 21/32/21 22/33/22 24/35/24
f 25/36/25 28/43/25 27/42/26 26/40/27
f 26/40/27 27/42/26 30/47/28 29/45/29
f 29/45/29 30/47/28 31/48/30 1/2/30
f 11/18/11 10/17/10 18/27/20 19/28/19
f 10/17/10 14/23/14 22/33/22 18/27/20
f 14/23/14 15/24/15 24/35/24 22/33/22
f 16/25/16 2/3/4 3/4/3 32/49/31
f 32/49/31 3/4/3 5/7/6 33/50/32
f 33/50/32 5/7/6 7/10/8 34/51/33
f 35/53/34 36/54/35 23/34/23 37/55/36
f 38/56/37 35/53/34 37/55/36 39/57/38
f 40/58/39 38/56/37 39/57/38 41/60/40
f 42/62/41 36/54/41 35/53/42
f 42/63/41 35/53/42 38/56/43
f 42/64/41 38/56/43 40/58/41
f 43/74/44 31/48/45 30/47/46
f 43/74/44 30/47/46 27/42/47
f 43/74/44 27/42/47 28/43/48
f 25/37/49 26/41/50 45/78/51 44/76/52
f 26/41/50 29/46/53 46/79/54 45/78/51
f 29/46/53 1/1/1 2/3/4 46/79/54
f 47/80/55 15/24/15 16/25/16 32/49/31
f 48/81/56 47/80/55 32/49/31 33/50/32
f 49/82/57 48/81/56 33/50/32 34/51/33
f 37/55/36 23/34/23 24/35/24 50/84/58
f 39/57/38 37/55/36 50/84/58 51/85/59
f 41/60/40 39/57/38 51/85/59 52/86/60
f 31/48/30 53/88/61 4/6/62 1/2/30
f 53/88/61 54/89/63 6/9/64 4/6/62
f 54/89/63 55/91/65 8/13/65 6/9/64
f 44/76/52 45/78/51 9/16/9 12/20/12
f 45/78/51 46/79/54 13/22/13 9/16/9
f 47/80/55 50/84/58 24/35/24 15/24/15
f 46/79/54 2/3/4 16/25/16 13/22/13
f 48/81/56 51/85/59 50/84/58 47/80/55
f 49/82/57 52/86/60 51/85/59 48/81/56
f 56/92/66 20/30/18 17/26/17 57/94/67
f 57/94/67 17/26/17 21/32/21 58/95/68
f 58/95/68 21/32/21 23/34/23 36/54/35
f 56/92/41 57/94/69 42/65/41
f 57/94/69 58/95/70 42/66/41
f 58/95/70 36/54/41 42/67/41
f 59/96/71 62/100/72 61/98/73 60/97/74
f 63/102/75 64/103/76 62/100/72 59/96/71
f 7/11/8 8/14/7 64/103/76 63/102/75
f 65/105/77 12/21/12 11/19/11 66/106/78
f 67/107/79 65/105/77 66/106/78 68/108/80
f 67/107/79 68/108/80 69/109/81 70/110/82
f 19/29/19 20/31/18 72/112/83 71/111/84
f 71/111/84 72/112/83 74/114/85 73/113/86
f 73/113/86 74/114/85 76/116/87 75/115/88
f 77/117/89 28/44/25 25/38/25 78/118/90
f 79/120/91 77/117/89 78/118/90 80/121/92
f 81/123/93 79/120/91 80/121/92 61/99/93
f 71/111/84 66/106/78 11/19/11 19/29/19
f 73/113/86 68/108/80 66/106/78 71/111/84
f 75/115/88 69/109/81 68/108/80 73/113/86
f 59/96/71 60/97/74 70/110/82 82/124/94
f 63/102/75 59/96/71 82/124/94 83/125/95
f 7/11/8 63/102/75 83/125/95 34/52/33
f 76/116/87 84/126/96 85/127/97 86/128/98
f 86/128/98 85/127/97 87/129/99 88/130/100
f 88/130/100 87/129/99 40/59/39 41/61/40
f 85/127/101 84/126/41 42/68/41
f 87/129/102 85/127/101 42/69/41
f 40/59/41 87/129/102 42/70/41
f 43/75/44 89/131/103 55/90/104
f 43/75/44 90/132/105 89/131/103
f 43/75/44 81/123/106 90/132/105
f 91/133/107 78/119/108 25/39/49 44/77/52
f 92/134/109 80/122/110 78/119/108 91/133/107
f 60/97/74 61/98/73 80/122/110 92/134/109
f 82/124/94 70/110/82 69/109/81 93/135/111
f 83/125/95 82/124/94 93/135/111 94/136/112
f 83/125/95 94/136/112 49/83/57 34/52/33
f 75/115/88 76/116/87 86/128/98 95/137/113
f 95/137/113 86/128/98 88/130/100 96/138/114
f 96/138/114 88/130/100 41/61/40 52/87/60
f 62/101/115 90/132/116 81/123/93 61/99/93
f 64/104/117 89/131/118 90/132/116 62/101/115
f 8/15/65 55/90/65 89/131/118 64/104/117
f 65/105/77 91/133/107 44/77/52 12/21/12
f 67/107/79 92/134/109 91/133/107 65/105/77
f 75/115/88 95/137/113 93/135/111 69/109/81
f 70/110/82 60/97/74 92/134/109 67/107/79
f 95/137/113 96/138/114 94/136/112 93/135/111
f 96/138/114 52/87/60 49/83/57 94/136/112
f 72/112/83 20/31/18 56/93/66 97/139/119
f 74/114/85 72/112/83 97/139/119 98/140/120
f 76/116/87 74/114/85 98/140/120 84/126/96
f 42/71/41 97/139/121 56/93/41
f 42/72/41 98/140/122 97/139/121
f 42/73/41 84/126/41 98/140/122
f 43/74/44 55/91/104 54/89/123
f 43/74/44 54/89/123 53/88/124
f 43/74/44 53/88/124 31/48/45
f 43/75/44 79/120/125 81/123/106
f 43/75/44 77/117/126 79/120/125
f 43/75/44 28/44/48 77/117/126
